<svg xmlns="http://www.w3.org/2000/svg" viewBox="17.436 201.966 482.564 86.854">
	<defs>
		<linearGradient gradientUnits="userSpaceOnUse" x1="364.839" y1="220.902" x2="364.839" y2="269.819" id="gradient-0" gradientTransform="matrix(0, 4.726361, -4.719126, 0, 1536.627682, -1477.871948)">
			<stop offset="0" style="stop-color: rgb(119, 15, 125); stop-opacity: 0.6;"/>
			<stop offset="1" style="stop-color: rgb(123, 123, 123); stop-opacity: 0;"/>
		</linearGradient>
		<linearGradient id="lg2757g7974dhjON" gradientUnits="userSpaceOnUse" x1="0" y1="0" x2="100%" y2="0" gradientTransform="matrix(50, 0, 0, 1, 21065.114735, 0)">
			<stop offset="0" style="stop-color:rgb(27,152,214);"/>
			<stop offset="0.21" style="stop-color:rgb(53,207,237);"/>
			<stop offset="0.55" style="stop-color:rgb(44,118,175);"/>
			<stop offset="1" style="stop-color:rgb(219,24,255);"/>
		</linearGradient>
	</defs>
	<g style="" transform="matrix(1, 0, 0, 1, 7.105427357601002e-15, -3.552713678800501e-15)">
		<path d="M 241.089 220.902 L 394.329 220.902 L 500.03 220.902 L 500.03 269.819 L 241.089 269.819 L 229.231 245.344 L 241.089 220.902 Z" style="paint-order: stroke; stroke-width: 0px; stroke-miterlimit: 1; fill: url('#gradient-0');"/>
	</g>
	<g id="l1jjNNQrmax3tN0ccBJL22T" fill="rgb(30,170,224)" style="" transform="matrix(0.010146000422537327, 0, 0, 0.010146000422537325, 0.00006700000955817131, 201.29877135592048)">
		<g style="transform: none;">
			<path id="pAw0yJCl7" d="M23610 6768 c0 -16 -3 -19 -8 -10 -6 9 -12 5 -23 -15 -8 -16 -21 -34 -29 -40 -13 -11 -13 -14 0 -22 12 -9 12 -11 -3 -17 -10 -3 -21 -4 -24 -1 -6 7 -63 -60 -63 -74 0 -4 6 -10 13 -12 6 -3 1 -6 -11 -6 -15 -1 -26 -9 -29 -21 -3 -11 -9 -17 -14 -14 -5 3 -9 -2 -9 -11 0 -9 -4 -14 -9 -11 -8 5 -26 -23 -19 -29 2 -1 12 -7 23 -13 17 -9 17 -10 -8 -9 -15 1 -27 6 -27 11 0 11 -29 -25 -30 -36 0 -5 11 -8 25 -8 28 0 28 0 15 -34 -6 -17 -17 -26 -32 -26 -23 -1 -23 -1 -3 -16 16 -12 18 -18 7 -34 -6 -11 -12 -26 -12 -34 0 -7 -7 -20 -16 -27 -15 -13 -36 -53 -38 -74 -1 -5 -11 -20 -23 -32 -13 -13 -20 -29 -17 -36 3 -8 -2 -17 -10 -20 -9 -4 -16 -15 -16 -26 0 -11 -4 -22 -9 -25 -4 -3 -6 -17 -3 -31 2 -15 0 -25 -7 -25 -7 0 -9 -4 -6 -10 3 -5 0 -10 -7 -10 -11 0 -10 -2 0 -9 11 -7 10 -10 -3 -15 -23 -8 -27 -8 -20 4 3 6 -1 10 -9 10 -11 0 -15 -11 -14 -39 0 -38 2 -40 42 -47 40 -7 40 -7 16 -18 -14 -6 -27 -13 -30 -17 -3 -3 -18 -11 -35 -17 -19 -6 -23 -11 -12 -11 16 -1 16 -3 5 -15 -8 -8 -23 -16 -34 -19 -16 -4 -16 -5 4 -6 20 -1 33 -21 13 -21 -5 0 -7 -18 -4 -39 5 -33 2 -40 -16 -46 -17 -5 -20 -12 -15 -33 8 -33 15 -41 21 -24 3 6 11 12 19 12 20 0 6 -27 -19 -34 l-21 -5 23 -20 22 -20 -27 -3 c-34 -4 -45 -28 -13 -28 l22 0 -23 -20 c-13 -11 -18 -20 -11 -20 7 0 9 -4 6 -10 -3 -5 0 -10 7 -10 9 0 9 -3 -2 -10 -13 -9 -13 -11 0 -20 10 -6 11 -10 3 -10 -19 0 -16 -21 5 -36 16 -13 16 -13 -3 -14 -17 0 -17 -2 -5 -10 9 -6 11 -13 5 -17 -14 -11 -17 -33 -4 -33 8 0 8 -4 -1 -14 -9 -12 -7 -17 9 -28 25 -15 27 -28 6 -28 -8 0 -15 -4 -15 -10 0 -5 5 -10 10 -10 21 0 9 -30 -15 -36 -14 -3 -22 -11 -18 -17 4 -7 -5 -8 -27 -4 -18 4 -39 7 -46 7 -8 0 -14 7 -14 15 0 9 -6 12 -17 8 -11 -4 -14 -3 -9 5 4 7 1 12 -7 12 -17 0 -16 -42 1 -48 19 -6 14 -19 -10 -26 l-23 -7 23 -11 c12 -6 22 -15 22 -20 0 -5 9 -6 20 -3 11 3 20 2 20 -4 0 -5 9 -13 20 -16 25 -8 27 -35 3 -35 -10 0 -14 -4 -8 -8 6 -4 11 -18 12 -32 4 -55 8 -70 16 -70 5 0 5 -6 0 -12 -13 -16 -13 -48 -1 -48 5 0 4 -9 -2 -19 -14 -27 -13 -58 3 -65 6 -3 -6 -2 -29 1 -40 5 -41 4 -42 -25 -1 -36 23 -61 40 -44 9 9 7 12 -10 12 -13 0 -22 6 -22 16 0 11 7 14 29 11 45 -7 55 -17 35 -31 -12 -9 -14 -15 -6 -20 21 -13 13 -26 -15 -27 -24 -2 -24 -2 -6 -6 19 -4 21 -7 10 -24 -6 -10 -20 -19 -29 -19 -11 0 -15 -5 -12 -15 4 -10 0 -15 -15 -15 -12 0 -21 -6 -21 -15 0 -8 -8 -15 -18 -15 -10 0 -25 -9 -35 -20 -9 -11 -28 -20 -42 -20 -34 0 -31 -12 8 -30 l32 -14 -25 -7 c-21 -5 -22 -7 -8 -13 19 -9 13 -36 -7 -36 -8 0 -17 -9 -20 -20 -3 -11 -14 -27 -23 -37 -16 -15 -15 -16 13 -9 17 4 32 12 33 17 2 5 12 9 23 9 17 0 24 11 20 33 0 4 6 7 14 7 16 0 38 34 28 44 -3 3 1 6 10 6 19 0 37 29 30 48 -3 6 3 12 13 12 9 0 14 3 11 6 -10 10 12 44 28 44 9 0 12 6 9 15 -4 10 0 15 15 15 20 0 25 9 22 38 -1 6 7 12 18 12 22 0 41 27 34 48 -3 7 4 12 19 12 14 0 18 3 11 8 -13 8 1 30 32 49 11 6 19 16 17 22 -1 6 4 11 12 11 12 0 24 15 23 30 0 3 19 24 42 47 24 23 40 47 36 53 -3 5 0 10 8 10 14 0 32 27 29 43 -1 4 5 7 13 7 15 0 42 39 28 41 -4 0 -1 3 9 7 22 9 109 122 102 133 -3 5 1 9 8 9 14 1 134 147 140 170 2 8 8 17 15 20 7 3 85 97 174 210 89 113 220 279 292 369 72 91 130 170 130 178 0 7 5 13 11 13 6 1 38 36 72 78 349 443 354 447 423 463 20 5 680 9 1466 10 1465 3 1781 7 1793 24 8 12 52 12 71 1 9 -6 17 -3 23 8 5 9 14 14 19 11 5 -4 7 -10 4 -15 -3 -4 9 -10 26 -12 16 -3 32 -1 35 4 3 4 0 8 -7 8 -9 0 -9 3 0 14 10 12 -4 14 -94 15 -67 1 -105 -3 -105 -9 0 -7 -6 -8 -19 0 -11 5 -51 11 -90 11 -55 1 -68 4 -64 15 3 8 -1 14 -11 14 -9 0 -16 -7 -16 -16 0 -15 -9 -16 -62 -10 -34 3 -65 12 -70 19 -5 8 -8 7 -8 -5 0 -23 -62 -25 -84 -3 -18 19 -112 21 -119 3 -4 -10 -6 -10 -6 0 -1 16 -2981 18 -2981 2 0 -5 -7 -10 -15 -10 -8 0 -15 5 -15 10 0 6 -7 10 -15 10 -8 0 -15 -4 -15 -10 0 -15 -77 -12 -84 3 -5 10 -7 10 -12 0 -7 -15 -54 -17 -54 -3 0 6 -48 10 -125 10 -77 0 -125 -4 -125 -10 0 -14 -47 -12 -54 3 -5 10 -7 10 -12 0 -4 -8 -27 -13 -64 -13 -37 0 -60 5 -64 13 -5 10 -7 10 -12 0 -7 -15 -54 -17 -54 -3 0 18 -30 11 -31 -7 0 -15 -2 -15 -9 2 -5 11 -9 14 -9 8 -1 -15 -61 -18 -61 -3 0 6 -7 10 -15 10 -9 0 -15 -9 -15 -22z" fill="url(#lg2757g7974dhjON)" style=""/>
			<path id="p1ENncDkVc" d="M22930 4212 c0 -6 -7 -12 -15 -12 -18 0 -20 -36 -2 -44 6 -3 0 -3 -15 0 -21 5 -28 2 -28 -10 0 -9 -4 -16 -9 -16 -5 0 -5 -16 1 -37 5 -21 12 -48 15 -61 3 -13 13 -28 23 -34 10 -7 15 -19 12 -30 -3 -12 1 -18 12 -18 9 0 16 -8 16 -20 0 -15 -7 -20 -27 -21 -17 0 -22 -3 -13 -6 8 -4 20 -12 25 -19 6 -7 19 -14 30 -17 15 -4 13 -5 -7 -6 -16 0 -28 -7 -28 -13 0 -9 -4 -8 -10 2 -9 13 -11 13 -19 0 -12 -18 -3 -33 15 -26 20 7 17 -4 -3 -20 -16 -12 -16 -15 -3 -24 8 -5 31 -10 50 -11 l35 -1 -37 -10 c-34 -9 -55 -38 -27 -38 6 0 8 -9 4 -21 -8 -25 27 -59 62 -59 39 0 26 -20 -14 -21 -34 -1 -35 -2 -13 -9 23 -7 21 -8 -12 -9 -50 -1 -74 -11 -56 -22 10 -7 7 -11 -9 -15 -24 -6 -32 -24 -12 -24 6 0 9 -9 6 -20 -3 -11 1 -27 9 -34 11 -12 11 -15 -1 -20 -21 -8 -19 -26 3 -27 11 0 7 -5 -13 -14 -16 -8 -23 -14 -15 -15 13 0 13 -1 0 -10 -10 -7 -11 -10 -2 -10 7 0 15 7 18 15 4 8 10 15 16 15 22 0 38 29 32 59 -6 31 -6 31 35 31 40 0 46 -6 42 -37 -1 -7 7 -13 18 -13 15 0 18 5 14 23 -4 20 -3 21 10 5 8 -10 18 -18 23 -18 6 0 10 -9 10 -20 0 -11 -6 -20 -13 -20 -19 0 -16 -28 5 -33 13 -4 13 -5 -4 -6 -15 -1 -23 -9 -26 -26 -3 -14 -1 -25 5 -25 5 0 7 -11 5 -25 -3 -14 -1 -25 6 -25 6 0 3 -5 -7 -11 -15 -9 -16 -12 -3 -25 9 -8 13 -21 10 -28 -3 -8 -1 -17 5 -21 18 -11 12 -25 -11 -26 -17 -1 -19 -2 -5 -6 20 -5 23 -29 5 -36 -8 -3 -6 -6 5 -6 24 -1 22 -31 -3 -31 -27 0 -25 -18 3 -31 19 -8 22 -16 19 -50 -3 -26 -9 -39 -19 -39 -8 0 -11 -4 -8 -10 3 -5 2 -10 -3 -10 -12 0 -33 -56 -25 -64 4 -3 16 -6 27 -6 20 0 20 0 -2 -16 -21 -14 -22 -41 -1 -29 5 3 6 -1 3 -9 -5 -13 0 -15 24 -10 21 4 31 2 35 -10 4 -10 1 -16 -8 -16 -8 0 -15 5 -15 10 0 6 -4 10 -9 10 -5 0 -8 -8 -6 -17 2 -10 4 -21 4 -25 1 -3 9 -8 18 -10 11 -2 3 -8 -20 -15 -29 -9 -40 -8 -50 1 -6 7 -27 21 -44 31 -18 11 -33 25 -33 32 0 7 -4 13 -10 13 -5 0 -13 18 -16 39 -5 32 -13 43 -38 55 -37 17 -107 82 -98 90 3 3 2 6 -2 6 -4 0 -14 -6 -21 -14 -13 -13 10 -46 158 -226 7 -8 38 -48 70 -88 32 -40 62 -70 66 -67 5 2 8 -2 7 -9 0 -8 17 -38 39 -66 125 -162 472 -599 493 -622 l26 -28 1780 1 c980 0 1878 5 1996 10 118 5 222 8 230 8 68 -5 306 3 313 10 16 16 -56 30 -162 33 -76 2 -105 6 -109 16 -4 11 -6 11 -13 1 -11 -19 -79 -22 -86 -3 -6 16 -83 20 -83 4 0 -5 -9 -10 -20 -10 -11 0 -20 5 -20 10 0 7 -449 10 -1327 10 -1423 1 -1367 -1 -1431 51 -24 19 -448 544 -761 942 -44 54 -68 77 -84 77 -16 0 -18 3 -9 9 22 13 -5 50 -32 44 -16 -4 -18 -2 -7 5 20 14 -235 335 -269 340 -16 3 -19 6 -11 12 21 12 -7 48 -33 43 -16 -4 -18 -2 -7 5 22 16 -161 242 -189 235 -21 -6 -29 12 -8 19 8 3 7 11 -5 28 -9 14 -17 19 -17 12 0 -6 -7 -12 -15 -12 -18 0 -20 17 -3 22 20 7 -24 54 -47 50 -15 -2 -17 -1 -6 6 18 13 6 31 -18 25 -10 -3 -22 0 -25 6 -4 6 0 11 8 11 23 0 20 6 -20 56 -22 27 -45 44 -58 44 -16 0 -18 2 -7 9 11 7 8 17 -17 52 -18 24 -32 38 -32 31 0 -15 -27 -16 -36 -1 -3 6 -1 15 6 19 19 11 3 29 -20 23 -21 -6 -29 12 -8 19 8 3 7 11 -5 28 -9 14 -17 19 -17 12z" fill="url(#lg2757g7974dhjON)" style=""/>
			<path id="p17jJaStS0" d="M 47067 6794 C 47065 6792 43467.486 6790 37017.486 6790 L 23612 6790 L 23512 6662 C 23411 6534 23347 6454 22653 5582 C 22441 5316 22263 5101 22256 5103 C 22244 5107 22057 5339 21353 6222 L 20900 6790 L 20325 6788.07 C 20179.779 6786.615 19859.46 6778.979 19756 6777.035 C 19760 6770.035 19854 6648 19965 6505 C 20076 6362 20292 6083 20445 5885 C 20650 5621 21535 4481 21643 4343 C 21656 4325 21661 4332 21271 3835 C 20719 3131 19975.707 2185.435 19863 2045 C 19806.009 1973.988 19761.847 1909.692 19760 1907 C 19759.998 1906.997 20020 1901 20338 1902 L 20915 1905 L 21200 2261 C 21357 2457 21657 2834 21868 3099 C 22079 3363 22255 3580 22259 3580 C 22276 3580 22306 3543 23045 2610 C 23155 2471 23326 2256 23425 2131 L 23605 1905 L 37040.428 1902 L 49280 1900 L 49280 1945 L 49280 1990 L 37033 1990 C 26968 1991 24778 1993 24748 2004 C 24728 2011 24698 2028 24682 2041 C 24666 2054 24500 2256 24314 2490 C 24127 2723 23722 3231 23413 3618 C 23103 4005 22850 4325 22850 4331 C 22850 4336 22937 4449 23043 4583 C 23303 4910 23636 5330 23920 5690 C 24623 6581 24676 6646 24717 6672 L 24755 6695 L 37018 6698 L 49280 6700 L 49280 6750 L 49280 6801 L 48175 6799 C 47568 6798 47069 6796 47067 6794 Z" fill="url(#lg2757g7974dhjON)" style=""/>
		</g>
	</g>
	<g id="l54Zzg8DvlaHO0Hx2BQ56Kg" fill="rgb(252,253,253)" style="" transform="matrix(0.010146000422537327, 0, 0, 0.010146000422537325, 0.00006700000955817131, 201.29877135592048)">
		<g style="transform: none;">
			<path id="pCDdNDyLT" d="M11995 6813 c-313 -20 -616 -96 -860 -217 -315 -156 -529 -356 -678 -636 -332 -625 -340 -1609 -17 -2278 183 -379 453 -650 832 -832 287 -138 582 -201 948 -201 498 -1 860 120 1185 393 289 243 499 638 584 1097 40 214 52 345 58 639 l6 292 -1014 1 c-558 1 -1206 2 -1441 2 l-428 0 0 36 c0 65 30 224 61 326 143 464 492 707 1019 706 385 0 628 -94 945 -365 l45 -38 72 67 c168 155 446 421 447 427 2 16 -189 196 -267 252 -189 134 -448 238 -730 291 -196 37 -525 54 -767 38z m1135 -2420 c0 -67 -22 -216 -46 -311 -99 -399 -348 -639 -734 -707 -107 -19 -189 -19 -310 0 -381 58 -661 304 -789 694 -30 91 -71 279 -71 327 l0 24 975 0 975 0 0 -27z"/>
			<path id="pKxE3LFbY" d="M16600 6809 c-323 -33 -577 -125 -872 -315 -53 -35 -126 -86 -162 -114 l-66 -50 0 220 0 220 -485 0 -485 0 0 -2685 0 -2685 485 0 485 0 0 885 c0 583 3 885 10 885 6 0 10 -4 10 -8 0 -12 200 -161 285 -213 494 -301 1160 -378 1700 -197 451 151 794 457 1010 901 104 213 170 437 211 722 25 170 25 553 0 725 -38 260 -113 504 -220 718 -183 364 -489 661 -856 830 -296 137 -692 197 -1050 161z m217 -760 c97 -13 267 -69 353 -115 219 -120 380 -307 475 -553 80 -207 111 -419 102 -704 -5 -192 -23 -314 -64 -457 -65 -226 -138 -354 -283 -501 -149 -150 -280 -222 -494 -272 -131 -30 -379 -30 -523 1 -296 64 -543 204 -781 442 l-102 102 0 753 0 753 98 93 c198 190 419 333 622 402 64 22 165 45 260 60 54 9 263 6 337 -4z"/>
			<path id="p1CzPydWNQ" d="M4290 6703 c-12 -38 -120 -408 -241 -823 -321 -1102 -314 -1079 -483 -1655 -172 -590 -510 -1758 -609 -2105 l-64 -225 555 -3 c305 -1 557 0 559 2 5 4 25 82 227 861 258 997 317 1223 420 1625 53 206 114 443 135 525 113 430 133 505 148 568 9 37 20 67 23 67 7 0 103 -244 320 -820 93 -245 180 -476 195 -515 25 -63 139 -369 265 -710 27 -71 58 -155 70 -185 12 -30 32 -84 45 -120 12 -36 59 -162 103 -280 44 -118 140 -375 212 -570 73 -195 146 -390 163 -432 l30 -78 329 0 c180 0 328 2 328 4 0 2 75 217 166 477 91 261 203 582 249 714 101 292 350 1005 475 1360 229 652 286 811 343 975 63 183 64 186 71 179 3 -2 64 -225 136 -494 193 -718 315 -1171 360 -1335 22 -80 74 -271 116 -425 42 -154 130 -478 196 -720 66 -242 123 -449 125 -460 3 -11 18 -64 35 -117 l29 -98 544 0 544 0 -24 73 c-13 39 -42 137 -65 217 -23 80 -75 255 -115 390 -40 135 -99 333 -130 440 -32 107 -107 359 -167 560 -60 201 -118 397 -129 435 -32 109 -43 147 -104 350 -31 105 -103 348 -160 540 -57 193 -133 451 -170 575 -37 124 -73 245 -80 270 -24 85 -136 465 -170 575 -30 98 -119 392 -132 438 -5 16 -42 17 -603 17 l-598 0 -15 -42 c-8 -24 -104 -288 -212 -588 -108 -300 -331 -927 -496 -1395 -165 -467 -313 -888 -330 -935 -31 -85 -49 -117 -49 -89 0 8 -25 79 -56 159 -81 210 -392 1034 -419 1110 -18 51 -269 721 -642 1713 l-26 67 -603 0 -603 0 -21 -67z"/>
		</g>
	</g>
</svg>
